PathFileType	4	(X/Y/Z)	Patient5_TMGait_0pt45_1_left_03.trc.trc
DataRate	CameraRate	NumFrames	NumMarkers	Units	OrigDataRate	OrigDataStartFrame	OrigNumFrames
58.091286307054	58.091286307054	4	32	mm	58.091286307054	89	       141
Frame#	Time	R.ASIS			L.ASIS			Chest			R.Shoulder			Neck			L.Shoulder			L.Elbow			L.Wrist			R.Elbow			R.Wrist			L.Thigh.Superior			L.Thigh.Lateral			L.Thigh.Inferior			L.Patella			L.Shank.Superior			L.Shank.Lateral			L.Shank.Inferior			L.Heel			L.Midfoot.Lateral			L.Midfoot.Superior			L.Toe			R.Thigh.Superior			R.Thigh.Lateral			R.Thigh.Inferior			R.Patella			R.Shank.Superior			R.Shank.Lateral			R.Shank.Inferior			R.Heel			R.Midfoot.Lateral			R.Midfoot.Superior			R.Toe			
		X1	Y1	Z1	X2	Y2	Z2	X3	Y3	Z3	X4	Y4	Z4	X5	Y5	Z5	X6	Y6	Z6	X7	Y7	Z7	X8	Y8	Z8	X9	Y9	Z9	X10	Y10	Z10	X11	Y11	Z11	X12	Y12	Z12	X13	Y13	Z13	X14	Y14	Z14	X15	Y15	Z15	X16	Y16	Z16	X17	Y17	Z17	X18	Y18	Z18	X19	Y19	Z19	X20	Y20	Z20	X21	Y21	Z21	X22	Y22	Z22	X23	Y23	Z23	X24	Y24	Z24	X25	Y25	Z25	X26	Y26	Z26	X27	Y27	Z27	X28	Y28	Z28	X29	Y29	Z29	X30	Y30	Z30	X31	Y31	Z31	X32	Y32	Z32	

89	4.894857142857	944.312547002026	968.636321725621	559.200865295011	932.476242265607	944.329189294494	317.470477830713	967.402317674109	1427.760016989846	474.314832099937	852.516350302487	1471.757608264145	639.452943673907	828.391007014259	1536.170342343888	456.456213947047	909.708156552908	1498.036155572295	277.485465828912	874.064773481442	1173.438438674532	138.770972950263	1009.164511519689	920.403869579721	153.988528828797	757.396532183031	1147.359100304684	758.629449982790	959.321040421027	943.105252026683	716.150784237945	906.450372690503	714.217773045403	322.632565317850	814.106276871728	660.296618456666	282.250972009987	866.476190578435	588.802433639400	346.805131740984	825.845754544984	469.781102362563	353.287593273649	752.183162038048	385.807732881110	374.864369424037	670.787822444729	336.800949756211	295.628252657032	686.592662128237	277.317713756740	384.186452513470	499.914147248350	68.397759650799	380.044383745649	586.040507369946	39.302230712876	319.662719378323	686.040740675792	90.454958971686	361.467123286029	789.257942447659	44.224842138483	363.459660739873	995.298500577027	747.452771326653	586.530422269175	927.879318633251	657.245080160661	640.991479097471	1018.700057320283	621.943170362257	568.844173456793	1039.795984240390	525.315710818851	601.509771863837	1013.256435215140	420.561729249577	561.904212046070	944.536810401829	342.883305398934	636.956369373880	1012.710934461688	280.326432254749	559.076323691548	917.575684193057	52.479026786045	516.865263747527	991.406315149775	22.881385126154	594.692274899472	1096.679656002399	90.478954099020	582.070567897843	1201.182575642393	47.997327756441	587.634653268951	
90	4.912071428571	946.105716758572	968.191228571047	562.368471580204	933.778740539020	944.461594506542	320.671093595150	969.949687145825	1427.783090453914	478.235169791234	856.443149290282	1471.332777758937	644.392506549446	830.756375094113	1536.477646478614	461.466233085229	910.075888427180	1498.403625118690	281.728354136773	869.584021723522	1174.681480301788	142.485856842767	1001.935466231895	920.045036972806	152.382981091815	765.520039888817	1145.952939461906	764.046921535033	966.518993666513	941.563800548223	717.855126570887	907.822476043720	714.509783334498	325.676038049035	815.800456680240	660.387458260694	284.911509358538	868.328218180184	588.944282457307	349.307399794893	827.301474517369	468.333522446127	355.022240652514	751.982755692619	385.425728554910	376.035028511192	669.600919476962	338.346986431846	296.536828325136	684.019298772000	278.327882192365	384.925413351110	493.341147388627	72.941548483324	379.905985950654	579.028856117481	41.982441275075	319.642542857396	680.051723992870	91.037045556435	361.204146054330	781.694373914796	44.087575479002	363.352585392615	995.958392285650	746.912288574366	587.062184807508	928.661700593755	657.030235347005	641.908659846642	1018.175321730131	621.431439297377	568.287277171506	1038.771593962838	524.398704184619	599.994552766609	1010.459763796731	419.696427843013	560.798342362018	942.640930034443	342.535582692608	637.133425335075	1008.426203937436	279.492838971630	557.622742790503	910.335241472391	51.972174212803	515.974707482977	983.925829166357	23.317241124320	594.207072194458	1090.071329793165	89.530939627538	579.606556193918	1194.150248806576	45.929881313547	586.066615054917	
91	4.929285714286	947.594962579949	968.441184471834	565.780324606508	934.823560802115	945.280905869387	324.013319028982	972.710707154862	1428.330444366675	482.300214266323	860.433729743008	1471.703232893012	649.246510461833	833.541036142340	1537.554649940864	466.362536269531	911.340121035698	1499.404128377181	286.103822685410	865.594004492361	1176.704795994180	146.497579552108	994.537213683104	920.239092347994	150.946586424847	773.823245918587	1145.286228249215	769.144734201394	974.188949471790	941.054476158876	719.467154446870	909.649757097781	715.521641738367	328.539883251053	818.232823804584	660.922066432937	287.345576835334	871.285658883373	589.640533172835	351.442356860457	830.285922086866	467.063002081688	356.027380869955	753.163023459827	385.178156274012	376.526679250032	669.471816026101	340.343831946391	297.017925371288	682.568653503129	279.754255002577	385.237741454065	487.325119333177	78.664847580546	379.697742781601	572.316304805900	45.189789814608	319.581354762357	674.656340104145	91.635082268117	360.742464905681	774.203310081976	43.962510271389	363.267836077311	996.829517360265	747.204470829763	588.239938263850	929.613745072848	657.501675765630	643.291556582361	1018.233760348714	621.674818430203	568.581749484130	1038.122810939104	524.165621886771	599.421382142559	1007.960898549804	419.494217079883	560.523508510874	940.815106177759	342.953189900237	638.095256285036	1004.230837528065	279.336018869386	557.037810112565	902.928656162032	52.081682599452	515.854916045735	976.448231552738	23.917241967139	594.207924770322	1083.253613262864	89.094138763903	578.269234755371	1186.989222818381	44.693204196259	585.220872692518	
92	4.946500000000	948.885457693526	969.180211454584	569.354662924340	935.577221574631	946.762371476957	327.433055990545	975.613897422615	1429.336583062465	486.445490714915	864.485194625824	1472.798608724186	654.012208208966	836.637213123071	1539.287190759547	471.189255527698	913.348961260388	1500.958134533064	290.587290850985	862.134541972124	1179.489302890527	150.641350225797	987.095420407197	921.023421093467	149.803532994417	782.018360686507	1145.368265298624	773.925983441689	982.213213830102	941.743054786285	721.032463612275	912.022396206969	717.187225234870	330.900730920383	821.472762657122	661.861511821151	289.295670321392	875.557021656713	590.810456205997	352.788465821694	835.073232217007	465.908169257438	355.846787590546	755.976459499108	385.025007952781	376.050342024701	670.561779258343	342.816858290330	296.914272390914	682.501678669079	281.571520446529	384.887954038337	482.099430866673	85.781911326204	379.405219369524	565.997845404587	49.034367099382	319.473557971199	669.945909654244	92.229768256980	360.042150045205	766.793850958952	43.843527868356	363.207252569919	997.713643666116	747.880408727744	590.360176116968	930.128465074311	658.281054624633	645.085255505478	1018.461580489140	622.233060873206	569.942957218011	1037.297483902322	524.202049199743	599.963261506256	1005.435387960998	419.635792793919	561.022656640396	938.512653277541	343.739407331817	639.514161902496	999.902517820987	279.535521150568	557.195354783736	895.372969471403	52.509799743075	516.191666538827	968.930529237864	24.485083379816	594.486353737864	1076.172952471334	88.954696503114	577.810510628184	1179.663589663987	44.066698908277	584.935804488187	
